{"title":"CHVRCHES Live Arte Introducing [May 2013] 720p 50fps 9.8Mbps","uid":10555676,"size":2030313168,"categoryP":"video","categoryS":"music_videos","magnet":"?xt=urn:btih:68f0d38927d2e33682106f3cf49e600be97e353a&amp;dn=CHVRCHES+Live+Arte+Introducing+%5BMay+2013%5D+720p+50fps+9.8Mbps&amp;tr=udp%3A%2F%2Ftracker.openbittorrent.com%3A80&amp;tr=udp%3A%2F%2Fopen.demonii.com%3A1337&amp;tr=udp%3A%2F%2Ftracker.coppersurfer.tk%3A6969&amp;tr=udp%3A%2F%2Fexodus.desync.com%3A6969","seeders":3,"leechers":0,"uploader":"doragon69","files":2,"time":1405390152,"description":"Live @ Arte Introducing \n\nMediaPlayerClassic thumbnails: &lt;a href=&quot;\nhttp://image.bayimg.com/5c7193954fb6fef5401a219252c001e4e2509613.jpg&quot; rel=&quot;nofollow&quot; target=&quot;_NEW&quot;&gt;\nhttp://image.bayimg.com/5c7193954fb6fef5401a219252c001e4e2509613.jpg&lt;/a&gt;\n\n.TS container\nVideo: MPEG4 Video (H264) 1280x720 50fps 9864kbps\nAudio1: Dolby AC3 48000Hz 6ch 448kbps\nAudio2: MPEG Audio 48000Hz stereo 192kbps \n\nSetlist:\nLies\nWe Sink\nNow Is Not The Time\nScience/Visions\nRecover\nThe Mother We Share\n\nVideo\nFormat : AVC\nFormat/Info : Advanced Video Codec\nFormat profile : &lt;a class=&quot;__cf_email__&quot; href=&quot;/cdn-cgi/l/email-protection&quot; data-cfemail=&quot;c78faea0af878bf4e9f5&quot;&gt;[email&amp;#160;protected]&lt;/a&gt;&lt;script cf-hash='f9e31' type=&quot;text/javascript&quot;&gt;\n/* &lt;![CDATA[ */!function(){try{var t=&quot;currentScript&quot;in document?document.currentScript:function(){for(var t=document.getElementsByTagName(&quot;script&quot;),e=t.length;e--;)if(t[e].getAttribute(&quot;cf-hash&quot;))return t[e]}();if(t&amp;&amp;t.previousSibling){var e,r,n,i,c=t.previousSibling,a=c.getAttribute(&quot;data-cfemail&quot;);if(a){for(e=&quot;&quot;,r=parseInt(a.substr(0,2),16),n=2;a.length-n;n+=2)i=parseInt(a.substr(n,2),16)^r,e+=String.fromCharCode(i);e=document.createTextNode(e),c.parentNode.replaceChild(e,c)}}}catch(u){}}();/* ]]&gt; */&lt;/script&gt;\nFormat settings, CABAC : Yes\nFormat settings, ReFrames : 4 frames\nCodec ID : 27\nDuration : 24mn 1s\nBit rate : 9 864 Kbps\nWidth : 1 280 pixels\nHeight : 720 pixels\nDisplay aspect ratio : 16:9\nFrame rate : 50.000 fps\nColor space : YUV\nChroma subsampling : 4:2:0\nBit depth : 8 bits\nScan type : Progressive\nBits/(Pixel*Frame) : 0.214\nStream size : 1.66 GiB (88%)\n\nAudio #1\nFormat : MPEG Audio\nFormat version : Version 1\nFormat profile : Layer 2\nCodec ID : 3\nDuration : 24mn 1s\nBit rate mode : Constant\nBit rate : 192 Kbps\nChannel(s) : 2 channels\nSampling rate : 48.0 KHz\nCompression mode : Lossy\nDelay relative to video : 13ms\nStream size : 33.0 MiB (2%)\nLanguage : German\n\nAudio #2\nFormat : MPEG Audio\nFormat version : Version 1\nFormat profile : Layer 2\nCodec ID : 3\nDuration : 24mn 1s\nBit rate mode : Constant\nBit rate : 192 Kbps\nChannel(s) : 2 channels\nSampling rate : 48.0 KHz\nCompression mode : Lossy\nDelay relative to video : 13ms\nStream size : 33.0 MiB (2%)\nLanguage : French\n\nAudio #3\nFormat : AC-3\nFormat/Info : Audio Coding 3\nMode extension : CM (complete main)\nFormat settings, Endianness : Big\nCodec ID : 6\nDuration : 24mn 1s\nBit rate mode : Constant\nBit rate : 448 Kbps\nChannel(s) : 6 channels\nChannel positions : Front: L C R, Side: L R, LFE\nSampling rate : 48.0 KHz\nBit depth : 16 bits\nCompression mode : Lossy\nDelay relative to video : 34ms\nStream size : 77.0 MiB (4%)\nLanguage : Multiple languages\n\n","torrent":{"xt":"urn:btih:68f0d38927d2e33682106f3cf49e600be97e353a","amp;dn":"CHVRCHES+Live+Arte+Introducing+%5BMay+2013%5D+720p+50fps+9.8Mbps","amp;tr":["udp%3A%2F%2Ftracker.openbittorrent.com%3A80","udp%3A%2F%2Fopen.demonii.com%3A1337","udp%3A%2F%2Ftracker.coppersurfer.tk%3A6969","udp%3A%2F%2Fexodus.desync.com%3A6969"],"infoHash":"68f0d38927d2e33682106f3cf49e600be97e353a","infoHashBuffer":{"type":"Buffer","data":[104,240,211,137,39,210,227,54,130,16,111,60,244,158,96,11,233,126,53,58]},"announce":[],"urlList":[]}}